<svg width="27" height="27" viewBox="0 0 27 27" fill="none" xmlns="http://www.w3.org/2000/svg">
<path d="M18.3848 1.94716L17.6777 1.24005L17.6777 1.24005L18.3848 1.94716ZM3.60132 16.7306L2.89421 16.0235L3.60132 16.7306ZM3.86014 24.1295L3.24884 24.9209L3.86014 24.1295ZM24.3037 3.68597L25.0951 3.07467L24.3037 3.68597ZM23.1372 3.87114L23.5984 4.33236L25.0126 2.91814L24.5514 2.45693L23.1372 3.87114ZM21.9203 2.65426L23.1372 3.87114L24.5514 2.45693L23.3345 1.24005L21.9203 2.65426ZM19.0919 2.65427C19.8729 1.87322 21.1393 1.87322 21.9203 2.65426L23.3345 1.24005C21.7724 -0.322047 19.2398 -0.322044 17.6777 1.24005L19.0919 2.65427ZM17.6119 4.13426L19.0919 2.65427L17.6777 1.24005L16.1977 2.72004L17.6119 4.13426ZM17.6119 6.96268C16.8309 6.18163 16.8309 4.9153 17.6119 4.13426L16.1977 2.72004C14.6356 4.28214 14.6356 6.8148 16.1977 8.37689L17.6119 6.96268ZM10.9848 17.4377L17.6119 10.8107L16.1977 9.39644L9.57061 16.0235L10.9848 17.4377ZM4.30842 17.4377C5.08947 16.6567 6.35581 16.6567 7.13685 17.4377L8.55107 16.0235C6.98897 14.4614 4.45631 14.4614 2.89421 16.0235L4.30842 17.4377ZM2.82843 18.9177L4.30842 17.4377L2.89421 16.0235L1.41422 17.5035L2.82843 18.9177ZM2.82843 21.7461C2.04739 20.9651 2.04739 19.6988 2.82843 18.9177L1.41422 17.5035C-0.147876 19.0656 -0.147878 21.5983 1.41422 23.1604L2.82843 21.7461ZM4.04532 22.963L2.82843 21.7461L1.41422 23.1604L2.6311 24.3772L4.04532 22.963ZM4.50653 23.4242L4.04532 22.963L2.6311 24.3772L3.09231 24.8385L4.50653 23.4242ZM10.2613 22.963C8.68078 24.5435 6.19448 24.6691 4.47144 23.3381L3.24884 24.9209C5.75788 26.859 9.37447 26.6783 11.6755 24.3772L10.2613 22.963ZM23.1372 10.0871L10.2613 22.963L11.6755 24.3772L24.5514 11.5013L23.1372 10.0871ZM23.5123 4.29727C24.8432 6.0203 24.7177 8.50661 23.1372 10.0871L24.5514 11.5013C26.8524 9.2003 27.0332 5.58371 25.0951 3.07467L23.5123 4.29727ZM4.53788 24.8385C4.18555 25.1908 3.63302 25.2177 3.24884 24.9209L4.47144 23.3381C4.06956 23.0277 3.49181 23.0561 3.12366 23.4242L4.53788 24.8385ZM3.09231 24.8385C3.49149 25.2376 4.1387 25.2376 4.53788 24.8385L3.12366 23.4242C3.50553 23.0424 4.12466 23.0424 4.50653 23.4242L3.09231 24.8385ZM9.57061 16.0235C9.28907 16.3051 8.83261 16.3051 8.55107 16.0235L7.13685 17.4377C8.19944 18.5003 9.92224 18.5003 10.9848 17.4377L9.57061 16.0235ZM25.0951 3.07467C25.3919 3.45886 25.3649 4.01139 25.0126 4.36371L23.5984 2.94949C23.2303 3.31762 23.2019 3.89538 23.5123 4.29727L25.0951 3.07467ZM16.1977 8.37689C16.4792 8.65844 16.4792 9.1149 16.1977 9.39644L17.6119 10.8107C18.6745 9.74807 18.6745 8.02527 17.6119 6.96268L16.1977 8.37689ZM23.5984 4.33236C23.2165 3.95049 23.2165 3.33136 23.5984 2.94949L25.0126 4.36371C25.4118 3.96452 25.4118 3.31732 25.0126 2.91814L23.5984 4.33236Z" fill="white"/>
</svg>
